<?xml version="1.0" encoding="UTF-8"?>
<!DOCTYPE svg PUBLIC "-//W3C//DTD SVG 1.1//EN" "http://www.w3.org/Graphics/SVG/1.1/DTD/svg11.dtd">
<!-- Creator: CorelDRAW 2021 (64-Bit) -->
<svg xmlns="http://www.w3.org/2000/svg" xml:space="preserve" width="6.4in" height="3.6in" version="1.1" style="shape-rendering:geometricPrecision; text-rendering:geometricPrecision; image-rendering:optimizeQuality; fill-rule:evenodd; clip-rule:evenodd"
viewBox="0 0 1333.17 749.91"
 xmlns:xlink="http://www.w3.org/1999/xlink"
 xmlns:xodm="http://www.corel.com/coreldraw/odm/2003">
 <defs>
  <style type="text/css">
   <![CDATA[
    .fil0 {fill:none}
   ]]>
  </style>
   <clipPath id="id0">
    <path d="M-0 0l1333.17 0 0 749.91 -1333.17 0 0 -749.91z"/>
   </clipPath>
    <clipPath id="id1">
     <path d="M-0 0l1333.17 0 0 749.91 -1333.17 0 0 -749.91z"/>
    </clipPath>
    <clipPath id="id2">
     <path d="M-0 0l1333.17 0 0 749.91 -1333.17 0 0 -749.91z"/>
    </clipPath>
    <clipPath id="id3">
     <path d="M1333.17 180.29l0 569.62 -910.75 0 0 -569.62 910.75 0z"/>
    </clipPath>
    <clipPath id="id4">
     <path d="M-0 0l1333.17 0 0 749.91 -1333.17 0 0 -749.91z"/>
    </clipPath>
    <clipPath id="id5">
     <path d="M-0 0l1333.17 0 0 576.27 -1333.17 0 0 -576.27z"/>
    </clipPath>
    <clipPath id="id6">
     <path d="M-0 0l1333.17 0 0 749.91 -1333.17 0 0 -749.91z"/>
    </clipPath>
    <clipPath id="id7">
     <path d="M-0 0l1333.17 0 0 749.91 -1333.17 0 0 -749.91z"/>
    </clipPath>
    <clipPath id="id8">
     <path d="M-0 0l1333.17 0 0 749.91 -1333.17 0 0 -749.91z"/>
    </clipPath>
    <clipPath id="id9">
     <path d="M246.56 0l1086.61 0 0 749.91 -1086.61 0 0 -749.91z"/>
    </clipPath>
    <clipPath id="id10">
     <path d="M-0 0l1333.17 0 0 749.91 -1333.17 0 0 -749.91z"/>
    </clipPath>
 </defs>
 <g id="Layer_x0020_1">
  <metadata id="CorelCorpID_0Corel-Layer"/>
  <g>
  </g>
  <g style="clip-path:url(#id0)">
   <g>
   </g>
   <g style="clip-path:url(#id1)">
    <image x="-50.71" y="-231.76" width="1453.49" height="1203.17" xlink:href="sampul_koltim_Images\sampul_koltim_ImgID1.png"/>
   </g>
   <g style="clip-path:url(#id2)">
   </g>
   <g style="clip-path:url(#id3)">
    <image x="422.42" y="180.29" width="1413.12" height="793.36" xlink:href="sampul_koltim_Images\sampul_koltim_ImgID2.png"/>
   </g>
   <g style="clip-path:url(#id4)">
   </g>
   <g style="clip-path:url(#id5)">
    <image x="-40.32" y="-217.1" width="1413.12" height="793.36" xlink:href="sampul_koltim_Images\sampul_koltim_ImgID3.png"/>
   </g>
   <g style="clip-path:url(#id6)">
   </g>
   <g style="clip-path:url(#id7)">
    <image x="-79.72" y="-52.87" width="2176.76" height="1033.96" xlink:href="sampul_koltim_Images\sampul_koltim_ImgID4.png"/>
   </g>
   <g style="clip-path:url(#id8)">
   </g>
   <g style="clip-path:url(#id9)">
    <image x="246.56" y="-71.7" width="1578.93" height="1053.37" xlink:href="sampul_koltim_Images\sampul_koltim_ImgID5.png"/>
   </g>
   <g style="clip-path:url(#id10)">
   </g>
  </g>
  <polygon class="fil0" points="-0,0 1333.17,0 1333.17,749.91 -0,749.91 "/>
 </g>
</svg>
